<?xml version="1.0" encoding="UTF-8"?>
<!-- Seht her! Meine Wenigkeit gestaltet Banner des Hauses Burkhardts.
Der Herr gebraucht eine Zunge welche sich XML scheltet.
-->
<svg width="360" height="480" xmlns="http://www.w3.org/2000/svg"
   xmlns:xlink="http://www.w3.org/1999/xlink" version="1.1" >

    <!-- red area left -->
    <path d="M50 260
    Q 180 260 180 120
    Q 110 120 70 110
    Q 60 140 40 160
    Q 70 200 50 260"
    stroke="black" stroke-width="2" fill="#D91E18" />

    <!-- red area right -->
    <path d="M300 260
    Q 180 260 180 120
    Q 250 120 290 110
    Q 300 140 320 160
    Q 290 200 310 260"
    stroke="black" stroke-width="2" fill="#D91E18" />

    <!-- yellow area -->
    <path d="M180 420
    Q  70 380  50 260 Q 180 260 180 120
    Q 180 260 310 260 Q 290 380 180 420"
    stroke="black" stroke-width="2" fill="#F7CA18" />

    <!-- tower left-->
    <rect x="85" y="215" width="40" height="7" stroke="black" stroke-width="2" fill="#F7CA18" />
    <path d="M90 215 95 165 115 165 120 215 90 215" stroke="black" stroke-width="2" fill="#F7CA18" />
    <path d="M90 165 120 165
    120 150 115 150 115 155 110 155 110 150 100 150 100 155 95 155 95 150 90 150
    90 165 120 165" stroke="black" stroke-width="2" fill="#F7CA18" />
    <rect x="100" y="205" width="10" height="10" fill="black" />
    <circle cx="105" cy="205" r="5" fill="black" />
    <rect x="102.5" y="187" width="5" height="5" fill="black" />
    <rect x="102.5" y="173" width="5" height="5" fill="black" />

    <!-- tower right -->
    <rect x="235" y="215" width="40" height="7" stroke="black" stroke-width="2" fill="#F7CA18" />
    <path d="M240 215 245 165 265 165 270 215 240 215" stroke="black" stroke-width="2" fill="#F7CA18" />
    <path d="M240 165 270 165
    270 150 265 150 265 155 260 155 260 150 250 150 250 155 245 155 245 150 240 150
    240 165 270 165" stroke="black" stroke-width="2" fill="#F7CA18" />
    <rect x="250" y="205" width="10" height="10" fill="black" />
    <circle cx="255" cy="205" r="5" fill="black" />
    <rect x="252.5" y="187" width="5" height="5" fill="black" />
    <rect x="252.5" y="173" width="5" height="5" fill="black" />

    <!-- red cross -->
    <path d="M175 220 185 220
    185 270
    230 270
    230 280
    185 280
    185 390
    175 390
    175 280
    130 280
    130 270
    175 270
    175 220
    185 220
    " stroke="black" stroke-width="2" fill="#D91E18" />

    <!-- red S -->
    <text x="130" y="375" font-family="Times New Roman" font-size="190"
    fill="#D91E18" stroke="black" stroke-width="2">S</text>

    <!-- S cover up -->
    <line x1="130" y1="270" x2="175" y2="270" stroke="black" stroke-width="2"/>
    <line x1="130" y1="280" x2="175" y2="280" stroke="black" stroke-width="2"/>
    <line x1="185" y1="270" x2="230" y2="270" stroke="black" stroke-width="2"/>
    <line x1="185" y1="280" x2="230" y2="280" stroke="black" stroke-width="2"/>
    <rect x="135" y="271" width="90" height="8" fill="#D91E18" />
    <line x1="175" y1="390" x2="175" y2="350" stroke="black" stroke-width="2"/>
    <line x1="185" y1="390" x2="185" y2="350" stroke="black" stroke-width="2"/>
    <rect x="176" y="350" width="8" height="38" fill="#D91E18" />

    <!--
    <line x1="180" y1="420" x2="70" y2="380" stroke="red" />
    <line x1="50" y1="260" x2="70" y2="380" stroke="red" />

    <line x1="310" y1="260" x2="290" y2="380" stroke="red" />
    <line x1="180" y1="420" x2="290" y2="380" stroke="red" />
    -->

    <!--
    <line x1="180" y1="0" x2="180" y2="480" stroke="red" />
    <line x1="50" y1="0" x2="50" y2="480" stroke="red" />
    <line x1="310" y1="0" x2="310" y2="480" stroke="red" />
    -->
</svg>
